<?xml version="1.0" encoding="UTF-8"?>
<svg id="Layer_1" xmlns="http://www.w3.org/2000/svg" version="1.1" viewBox="0 0 190.82 143.52">
  <!-- Generator: Adobe Illustrator 30.1.0, SVG Export Plug-In . SVG Version: 2.1.1 Build 136)  -->
  <defs>
    <style>
      .st0 {
        fill: #c58794;
      }

      .st1 {
        fill: none;
      }

      .st1, .st2 {
        stroke: #c58794;
        stroke-linecap: round;
        stroke-linejoin: round;
        stroke-width: 8px;
      }

      .st2 {
        fill: #f7dddc;
      }
    </style>
  </defs>
  <path class="st2" d="M57.93,42.49C68.85,19.72,92.12,4,119.06,4c37.43,0,67.76,30.34,67.76,67.76s-30.34,67.76-67.76,67.76c-34.82,0-63.5-26.26-67.33-60.05"/>
  <line class="st1" x1="4" y1="59.53" x2="79.29" y2="59.53"/>
  <line class="st1" x1="4" y1="24.59" x2="49.53" y2="24.59"/>
  <line class="st1" x1="26.76" y1="92.71" x2="54.23" y2="92.71"/>
  <line class="st1" x1="4" y1="122.36" x2="43" y2="122.36"/>
  <path class="st0" d="M147.02,80.54c-.51,8.18-3.45,14.92-8.82,20.2-5.2,5.2-10.91,7.8-17.13,7.8-7.42,0-12.44-1.96-15.09-5.88-1.19-1.7-1.96-3.71-2.3-6.01-.34-2.3-.51-5.07-.51-8.31v-16.72h-6.52l-5.11-6.78h12.15v-17.32c0-3.32-1.49-4.99-4.47-4.99-.68,0-1.3.15-1.85.45-.56.3-1.17.58-1.85.83l-2.56-7.16c2.73-1.11,5.16-1.66,7.29-1.66,3.84,0,6.63,1.28,8.37,3.84,1.75,2.56,2.62,6.78,2.62,12.66v13.36h3.61l5.5,6.78h-9.11v23.11c.26,4.26,2.73,6.39,7.42,6.39,4.43,0,8.39-1.87,11.89-5.62,3.49-3.75,5.24-7.97,5.24-12.66-1.19.26-2.26.38-3.2.38-2.47,0-4.43-.72-5.88-2.17-1.45-1.45-2.17-3.58-2.17-6.39,0-3.32.9-5.82,2.68-7.48,1.79-1.66,4.09-2.49,6.9-2.49,8.61,0,12.91,5.29,12.91,15.85h0Z"/>
</svg>